<?xml version="1.0" encoding="UTF-8"?>
<svg xmlns="http://www.w3.org/2000/svg" width="1200" height="630" viewBox="0 0 1200 630">
	<rect width="1200" height="630" fill="#f3ead6" />
	<g fill="#363636" aria-label="Andy Morales">
		<path d="M-3 0Q-18 0 -18 10Q-18 20 -4 23L11 26Q31 30 41.0 45.5Q51 61 58 89L213 714Q215 724 219.5 727.0Q224 730 228 730Q233 730 237.5 727.0Q242 724 244 714L402 80Q409 52 418.0 41.0Q427 30 446 26L461 23Q475 20 475 10Q475 0 460 0H289Q275 0 275 11Q275 22 292 23L311 25Q328 27 332.5 36.0Q337 45 332 67L294 222Q288 248 261 248H156Q130 248 123 222L89 88Q74 31 119 25L134 23Q151 20 151 11Q151 0 137 0ZM153 278H263Q279 278 276 295L212 563H207L140 295Q137 278 153 278Z" transform="translate(72.00 182.00) scale(0.142000 -0.142000)" />
		<path d="M30 0Q15 0 15 11Q15 20 28 23L40 25Q61 29 67.5 37.5Q74 46 74 67V403Q74 421 68.5 427.5Q63 434 49 436L28 439Q15 440 15 450Q15 458 31 461Q62 466 78.5 477.0Q95 488 113 504Q122 513 128 513Q137 513 137 501V456Q137 447 143.5 444.5Q150 442 158 450Q198 488 228.5 502.0Q259 516 293 516Q338 516 365.0 484.5Q392 453 392 392V67Q392 46 398.5 37.5Q405 29 426 26L448 23Q459 21 459 11Q459 0 447 0H279Q265 0 265 11Q265 21 276 23L290 25Q311 28 317.5 37.0Q324 46 324 67V381Q324 430 306.0 450.0Q288 470 255 470Q223 470 197.5 451.5Q172 433 157.0 402.5Q142 372 142 335V67Q142 46 148.5 37.0Q155 28 176 26L203 23Q214 21 214 12Q214 0 199 0Z" transform="translate(132.63 182.00) scale(0.142000 -0.142000)" />
		<path d="M181 -9Q137 -9 102.5 21.5Q68 52 49.0 106.5Q30 161 30 233Q30 317 56.0 380.5Q82 444 128.0 480.0Q174 516 232 516Q246 516 260.0 513.5Q274 511 287 505Q303 497 303 512V640Q303 658 297.5 665.0Q292 672 278 673L252 676Q241 678 241 688Q241 698 252 700Q284 706 303.5 714.0Q323 722 336 730Q352 740 360 740Q371 740 371 724V95Q371 53 392 53Q405 53 416.0 70.5Q427 88 427 130Q427 146 440 146Q452 146 452 129Q452 56 427.0 23.5Q402 -9 370 -9Q341 -9 326.0 10.5Q311 30 306 57Q305 65 299.0 65.5Q293 66 288 58Q260 19 237.0 5.0Q214 -9 181 -9ZM203 37Q229 37 251.5 54.5Q274 72 288.5 102.0Q303 132 303 169V394Q303 439 282.5 465.0Q262 491 229 491Q173 491 138.5 425.5Q104 360 104 247Q104 144 130.5 90.5Q157 37 203 37Z" transform="translate(195.11 182.00) scale(0.142000 -0.142000)" />
		<path d="M83 -205Q56 -205 40.0 -186.5Q24 -168 24 -144Q24 -125 35.0 -112.0Q46 -99 65 -99Q81 -99 88.0 -106.0Q95 -113 98.0 -122.0Q101 -131 104.0 -138.0Q107 -145 116 -145Q127 -145 136.0 -129.5Q145 -114 161 -64Q171 -34 173.5 -12.0Q176 10 172.5 35.0Q169 60 157 96L48 443Q41 467 34.5 474.0Q28 481 14 484L-1 487Q-14 490 -14 500Q-14 510 0 510H165Q179 510 179 500Q179 489 166 487L150 485Q126 482 119.5 473.5Q113 465 120 443L208 150Q211 140 217.5 140.0Q224 140 227 150L312 425Q320 452 316.5 465.5Q313 479 288 483L267 487Q254 490 254 500Q254 510 268 510H395Q409 510 409 499Q409 489 397 485L388 482Q373 477 363.0 464.0Q353 451 342 419L193 -46Q171 -116 153.5 -150.0Q136 -184 120.0 -194.5Q104 -205 83 -205Z" transform="translate(255.75 182.00) scale(0.142000 -0.142000)" />
		<path d="M315 10Q311 10 306.0 13.0Q301 16 299 26L148 639Q147 646 142.0 645.5Q137 645 137 638L117 86Q116 58 126.0 43.5Q136 29 161 25L174 23Q187 22 187 11Q187 0 172 0H29Q14 0 14 11Q14 22 27 23L40 25Q66 29 75.5 43.5Q85 58 86 86L106 654Q107 675 100.0 682.0Q93 689 70 693L47 697Q34 700 34 709Q34 720 49 720H169Q200 720 207 690L328 191Q330 184 334.5 184.0Q339 184 340 191L466 695Q472 720 498 720H616Q631 720 631 709Q631 700 618 697L595 693Q574 689 567.0 682.0Q560 675 561 654L581 66Q582 45 588.0 38.0Q594 31 615 27L638 23Q651 20 651 11Q651 0 636 0H455Q440 0 440 11Q440 20 453 23L476 27Q497 31 504.0 38.0Q511 45 510 66L493 638Q493 645 488.5 645.5Q484 646 482 640L330 26Q328 16 323.5 13.0Q319 10 315 10Z" transform="translate(72.00 304.00) scale(0.142000 -0.142000)" />
		<path d="M203 -9Q152 -9 111.5 25.5Q71 60 47.0 120.0Q23 180 23 254Q23 328 47.0 387.0Q71 446 112.0 481.0Q153 516 203 516Q254 516 294.5 481.0Q335 446 359.0 387.0Q383 328 383 254Q383 180 359.5 120.0Q336 60 295.0 25.5Q254 -9 203 -9ZM203 16Q307 16 307 254Q307 491 203 491Q99 491 99 254Q99 16 203 16Z" transform="translate(162.17 304.00) scale(0.142000 -0.142000)" />
		<path d="M154 446Q195 516 253 516Q286 516 302.0 496.5Q318 477 318 453Q318 434 308.5 422.0Q299 410 279 410Q263 410 255.5 417.5Q248 425 243.5 435.0Q239 445 233.0 452.5Q227 460 213 460Q195 460 179.0 438.5Q163 417 152.5 381.0Q142 345 142 299V67Q142 46 148.5 37.0Q155 28 176 26L203 23Q214 21 214 12Q214 0 199 0H30Q15 0 15 11Q15 20 28 23L40 25Q61 29 67.5 37.5Q74 46 74 67V403Q74 421 68.5 427.5Q63 434 49 436L28 439Q15 440 15 450Q15 458 31 461Q62 466 78.5 477.0Q95 488 113 504Q122 513 128 513Q137 513 137 501V447Q137 440 143.0 438.5Q149 437 154 446Z" transform="translate(215.85 304.00) scale(0.142000 -0.142000)" />
		<path d="M120 -9Q78 -9 51.0 17.5Q24 44 24 88Q24 131 51.0 169.5Q78 208 125.0 239.0Q172 270 232 289Q245 293 245 306V397Q245 445 230.0 465.5Q215 486 189 486Q164 486 143.5 463.5Q123 441 114 388Q109 356 92.5 341.5Q76 327 59 327Q31 327 31 355Q31 384 47.5 412.5Q64 441 91.0 464.5Q118 488 150.0 502.0Q182 516 214 516Q313 516 313 401V95Q313 53 334 53Q347 53 358.0 70.5Q369 88 369 130Q369 146 382 146Q394 146 394 129Q394 56 368.5 23.5Q343 -9 311 -9Q287 -9 273.0 10.5Q259 30 254 57Q253 67 245.5 67.5Q238 68 231 58Q207 25 182.0 8.0Q157 -9 120 -9ZM147 37Q173 37 195.0 55.5Q217 74 231.0 105.0Q245 136 245 175V248Q245 267 224 259Q163 237 129.5 198.5Q96 160 96 106Q96 37 147 37Z" transform="translate(256.74 304.00) scale(0.142000 -0.142000)" />
		<path d="M20 0Q8 0 8 11Q8 21 19 23L33 25Q54 28 64.0 37.0Q74 46 74 67V640Q74 658 68.5 665.0Q63 672 49 673L26 676Q15 678 15 688Q15 698 26 700Q54 706 74.0 714.0Q94 722 107 730Q123 740 131 740Q142 740 142 724V67Q142 46 148.5 37.5Q155 29 176 26L199 23Q210 21 210 11Q210 0 198 0Z" transform="translate(309.14 304.00) scale(0.142000 -0.142000)" />
		<path d="M192 -9Q144 -9 106.0 23.0Q68 55 45.5 113.5Q23 172 23 249Q23 328 46.0 388.0Q69 448 109.0 482.0Q149 516 198 516Q257 516 293.5 467.5Q330 419 330 310Q330 277 305 277H115Q95 277 95 254Q95 148 126.0 95.0Q157 42 205 42Q243 42 267.0 69.0Q291 96 306 160Q309 171 319 171Q331 171 328 151Q312 62 277.0 26.5Q242 -9 192 -9ZM112 302H213Q261 302 261 352Q261 417 245.0 454.0Q229 491 197 491Q158 491 131.5 446.0Q105 401 97 318Q95 302 112 302Z" transform="translate(336.12 304.00) scale(0.142000 -0.142000)" />
		<path d="M131 -9Q108 -9 82.0 -3.5Q56 2 40 10Q31 15 31 27L28 139Q28 156 41 156Q52 156 56 140Q73 69 97.5 43.0Q122 17 157 17Q186 17 205.0 39.5Q224 62 224 102Q224 142 202.0 173.0Q180 204 128 241Q76 276 52.0 311.5Q28 347 28 389Q28 446 68.0 481.0Q108 516 174 516Q194 516 213.0 511.5Q232 507 247 497Q256 491 256 481L258 371Q258 356 246 356Q239 356 236.0 360.5Q233 365 231 372Q211 437 191.0 462.5Q171 488 142 488Q116 488 99.0 470.0Q82 452 82 425Q82 390 103.0 364.0Q124 338 179 300Q229 264 254.5 222.5Q280 181 280 132Q280 68 239.0 29.5Q198 -9 131 -9Z" transform="translate(382.27 304.00) scale(0.142000 -0.142000)" />
	</g>
	<g transform="translate(72 340)">
		<rect width="432" height="68" rx="16" fill="#363636" />
		<rect width="432" height="68" rx="16" fill="none" stroke="#000000" stroke-opacity="0.12" />
		<g
			font-family="'IBM Plex Mono', ui-monospace, SFMono-Regular, Menlo, Monaco, Consolas, 'Liberation Mono', 'Courier New', monospace"
			font-size="24"
			font-weight="300"
			letter-spacing="0.02em"
		>
			<text x="24" y="42" fill="#d4cfc4">$</text>
			<text x="48" y="42" fill="#e5ddd2">I design tools.</text>
			<rect x="267" y="22" width="2" height="22" fill="#e5ddd2" opacity="0.92" />
		</g>
	</g>
	<g transform="translate(1018 458) scale(3.85)">
		<circle cx="16" cy="16" r="15" fill="#f3ead6" />
		<g
			fill="#363636"
			shape-rendering="crispEdges"
			transform="translate(16 16) scale(0.75) translate(-12 -13)"
		>
			<rect x="5" y="2" width="4" height="8" />
			<rect x="15" y="2" width="4" height="8" />
			<rect x="0" y="14" width="2" height="4" />
			<rect x="2" y="16" width="2" height="4" />
			<rect x="4" y="18" width="2" height="4" />
			<rect x="6" y="20" width="12" height="4" />
			<rect x="18" y="18" width="2" height="4" />
			<rect x="20" y="16" width="2" height="4" />
			<rect x="22" y="14" width="2" height="4" />
		</g>
	</g>
</svg>
