<svg width="170" height="40" viewBox="0 0 170 40" fill="none" xmlns="http://www.w3.org/2000/svg">
<path d="M27.8352 35.8431L17.8768 25.898L10.9992 18.9364L13.7067 16.2326C15.9473 13.9949 15.9473 10.452 13.7067 8.21437C12.9287 7.43741 11.9639 6.90908 10.9681 6.69153L15.5428 2.123L13.6755 0.258301L2.28557 11.6019L0.88516 13.0004L6.98471 19.0918L1.00964 25.0589L1.07188 25.121L7.04695 31.0881L0.511719 37.6145L2.59677 39.6968L9.132 33.1703L11.8395 35.8741C14.0801 38.1118 17.6278 38.1118 19.8685 35.8741C20.6465 35.0972 21.1755 34.1337 21.3934 33.1392L25.968 37.7078L27.8352 35.8431ZM9.06976 17.0096L4.86854 12.814L7.57599 10.1102C8.75856 8.92917 10.5947 8.92917 11.7772 10.1102C12.9598 11.2911 12.9598 13.1248 11.7772 14.3057L9.06976 17.0096ZM4.83742 25.0589L8.91416 20.9876L13.1465 25.0278L8.9764 29.1923L4.83742 25.0589ZM13.7378 33.9784L11.0303 31.2745L15.2316 27.079L17.939 29.7828C19.1216 30.9637 19.1216 32.7974 17.939 33.9784C16.7564 35.1593 14.9204 35.1593 13.7378 33.9784Z" fill="currentColor"/>
<path d="M87.7114 0.980957H58.7021H55.1147V16.594H39.835V21.4592H55.1147V38.1338H60.4294V21.4592H67.3384C73.096 21.4592 77.6135 16.9478 77.6135 11.198C77.6135 9.16343 77.0377 7.30578 76.0634 5.75775H87.7114V0.980957ZM67.3384 16.594H60.4294V5.89044H67.3384C70.3501 5.89044 72.6974 8.2346 72.6974 11.2422C72.6974 14.2498 70.3501 16.594 67.3384 16.594Z" fill="currentColor"/>
<path d="M76.9941 29.4205C76.9941 24.1571 81.2459 19.9111 86.5163 19.9111C89.4836 19.9111 92.0967 21.238 93.8683 23.3168V16.4612H81.113V11.5959H99.1829V38.1337H93.8683V35.5684C92.0967 37.6472 89.5279 38.974 86.5163 38.974C81.2459 38.974 76.9941 34.728 76.9941 29.4205ZM86.5163 34.1088C89.1293 34.1088 91.2109 32.03 91.2109 29.4205C91.2109 26.8551 89.1293 24.8206 86.5163 24.8206C83.9475 24.8206 81.9102 26.8994 81.9102 29.4205C81.9102 32.03 83.9918 34.1088 86.5163 34.1088Z" fill="currentColor"/>
<path d="M102.327 11.5963H107.642V14.8692C109.413 12.2155 112.248 10.7117 115.924 10.7117C122.479 10.7117 126.775 15.4442 126.775 22.919V38.134H121.46V22.4325C121.46 18.0095 118.98 15.5327 114.551 15.5327C110.122 15.5327 107.642 18.0095 107.642 22.4325V38.134H102.327V11.5963Z" fill="currentColor"/>
<path d="M136.385 4.69629V11.5961H141.7V16.4614H136.385V33.2686H141.7V38.1338H131.513V16.4614H127.793V11.5961H131.513V4.69629H136.385Z" fill="currentColor"/>
<path d="M141.701 24.8651C141.701 17.0807 148.034 10.7559 155.829 10.7559C163.624 10.7559 169.958 17.0807 169.958 24.8651C169.958 32.6495 163.624 38.9743 155.829 38.9743C148.034 38.9743 141.701 32.6937 141.701 24.8651ZM155.829 34.1091C160.923 34.1091 165.086 29.9515 165.086 24.8651C165.086 19.7787 160.923 15.6211 155.829 15.6211C150.736 15.6211 146.573 19.7787 146.573 24.8651C146.573 29.9515 150.736 34.1091 155.829 34.1091Z" fill="currentColor"/>
</svg>
