<svg width="343" height="283" viewBox="0 0 343 283" fill="none" xmlns="http://www.w3.org/2000/svg">
<path d="M248.102 137.157L210.846 99.9004L185.116 73.8211L195.245 63.6921C203.628 55.3095 203.628 42.0369 195.245 33.6543C192.335 30.7437 188.725 28.7644 185 27.9495L202.114 10.8349L195.129 3.84937L152.517 46.3447L147.278 51.5838L170.097 74.4032L147.744 96.7569L147.977 96.9898L170.33 119.343L145.881 143.793L153.681 151.593L178.131 127.144L188.26 137.273C196.642 145.656 209.915 145.656 218.298 137.273C221.208 134.362 223.187 130.753 224.002 127.028L241.117 144.142L248.102 137.157ZM177.898 66.6027L162.18 50.8853L172.309 40.7563C176.734 36.3321 183.603 36.3321 188.027 40.7563C192.451 45.1804 192.451 52.0495 188.027 56.4737L177.898 66.6027ZM162.064 96.7569L177.316 81.5052L193.15 96.6405L177.549 112.242L162.064 96.7569ZM195.362 130.171L185.233 120.042L200.95 104.325L211.079 114.454C215.503 118.878 215.503 125.747 211.079 130.171C206.655 134.595 199.786 134.595 195.362 130.171Z" fill="currentColor"/>
<path fill-rule="evenodd" clip-rule="evenodd" d="M195.086 0.558167L205.363 10.8345L189.297 26.8999C192.055 28.0647 194.638 29.7984 196.847 32.0074C206.139 41.2993 206.139 56.0462 196.847 65.3382L188.353 73.8317L212.448 98.2535L212.459 98.2646L251.351 137.156L241.072 147.435L225.007 131.369C223.842 134.127 222.108 136.71 219.899 138.919C210.607 148.211 195.86 148.211 186.568 138.919L178.086 130.437L153.636 154.886L142.543 143.792L166.992 119.343L146.285 98.6359L144.406 96.7565L166.759 74.4028L143.94 51.5834L150.826 44.6977L195.086 0.558167ZM154.116 47.993L150.526 51.5834L173.346 74.4028L150.992 96.7565L173.578 119.343L149.129 143.792L153.636 148.3L178.086 123.851L189.861 135.626C197.335 143.099 209.133 143.099 216.606 135.626C219.216 133.017 220.967 129.801 221.683 126.53L222.593 122.369L241.072 140.849L244.765 137.156L209.155 101.547L209.144 101.535L181.789 73.8096L193.554 62.0451C201.027 54.5719 201.027 42.7737 193.554 35.3004C190.944 32.6908 187.729 30.9394 184.457 30.2237L180.297 29.3137L198.777 10.8345L195.082 7.13969L154.116 47.993ZM186.336 42.4023C182.821 38.8875 177.426 38.8875 173.911 42.4023L165.429 50.8848L177.853 63.3093L186.336 54.8268C189.85 51.3119 189.85 45.9172 186.336 42.4023ZM170.618 39.1093C175.952 33.7758 184.295 33.7758 189.629 39.1093C194.962 44.4428 194.962 52.7863 189.629 58.1198L177.853 69.8953L158.843 50.8848L170.618 39.1093ZM177.234 78.2485L196.435 96.6025L177.504 115.534L158.726 96.7565L177.234 78.2485ZM177.308 84.761L165.312 96.7565L177.504 108.948L189.774 96.6776L177.308 84.761ZM200.905 101.031L212.681 112.807C218.014 118.14 218.014 126.484 212.681 131.817C207.347 137.151 199.004 137.151 193.67 131.817L181.895 120.042L200.905 101.031ZM188.481 120.042L196.963 128.524C200.478 132.039 205.873 132.039 209.388 128.524C212.903 125.009 212.903 119.615 209.388 116.1L200.905 107.617L188.481 120.042Z" fill="currentColor"/>
<path d="M126.733 182.562H50.4742H41.0438V223.66H0.876953V236.467H41.0438V280.36H55.0148V236.467H73.1772C88.3125 236.467 100.188 224.592 100.188 209.456C100.188 204.101 98.6744 199.211 96.1131 195.136H126.733V182.562ZM73.1772 223.66H55.0148V195.485H73.1772C81.0942 195.485 87.2647 201.656 87.2647 209.573C87.2647 217.49 81.0942 223.66 73.1772 223.66Z" fill="currentColor"/>
<path d="M98.5508 257.424C98.5508 243.569 109.728 232.392 123.582 232.392C131.383 232.392 138.252 235.885 142.909 241.357V223.311H109.378V210.504H156.88V280.36H142.909V273.607C138.252 279.079 131.499 282.572 123.582 282.572C109.728 282.572 98.5508 271.395 98.5508 257.424ZM123.582 269.765C130.451 269.765 135.923 264.293 135.923 257.424C135.923 250.671 130.451 245.315 123.582 245.315C116.83 245.315 111.474 250.787 111.474 257.424C111.474 264.293 116.946 269.765 123.582 269.765Z" fill="currentColor"/>
<path d="M165.131 210.504H179.102V219.12C183.759 212.134 191.21 208.176 200.873 208.176C218.104 208.176 229.398 220.634 229.398 240.309V280.36H215.427V239.029C215.427 227.386 208.907 220.866 197.264 220.866C185.622 220.866 179.102 227.386 179.102 239.029V280.36H165.131V210.504Z" fill="currentColor"/>
<path d="M254.684 192.342V210.504H268.655V223.311H254.684V267.553H268.655V280.36H241.877V223.311H232.098V210.504H241.877V192.342H254.684Z" fill="currentColor"/>
<path d="M268.639 245.432C268.639 224.942 285.288 208.293 305.778 208.293C326.269 208.293 342.918 224.942 342.918 245.432C342.918 265.923 326.269 282.572 305.778 282.572C285.288 282.572 268.639 266.04 268.639 245.432ZM305.778 269.765C319.167 269.765 330.111 258.821 330.111 245.432C330.111 232.043 319.167 221.1 305.778 221.1C292.389 221.1 281.445 232.043 281.445 245.432C281.445 258.821 292.389 269.765 305.778 269.765Z" fill="currentColor"/>
</svg>
